# xmcd
#
# Track frame offsets:
#	150
#	10338
#	20937
#	32512
#	43432
#	54840
#	68377
#	80018
#	90525
#	101813
#	113150
#	124474
#	132515
#	144655
#	155002
#	167712
#	177657
#	188089
#	205390
#	216721
#
# Disc length: 3036 seconds
#
# Revision: 1
# Processed by: cddbd v1.5.2PL0 Copyright (c) Steve Scherf et al.
# Submitted via: audiograbber 1.83.01
#
DISCID=320bda14
DTITLE=Julie London - Best Of 1957 - 1958
DYEAR=2016
DGENRE=Jazz
TTITLE0=If I Could Be With You
TTITLE1=The Nearness Of You
TTITLE2=Lover Man
TTITLE3=Julie London - Body And Soul
TTITLE4=Make Love To Me
TTITLE5=Somebody Loves Me
TTITLE6=Bye Bye Blackbird
TTITLE7=Free And Easy
TTITLE8=Midnight Sun
TTITLE9=You're Getting To Be A Habit With Me
TTITLE10=Blue Moon
TTITLE11=What Is This Thing Called Love
TTITLE12=Too Good To Be True
TTITLE13=Goody Goody
TTITLE14=Little White Lies
TTITLE15=Mad About The Boy
TTITLE16=In The Middle Of A Kiss
TTITLE17=My Man's Gone Now
TTITLE18=The Exciting Life
TTITLE19=That Old Feeling
EXTD=YEAR: 2016
EXTT0=
EXTT1=
EXTT2=
EXTT3=
EXTT4=
EXTT5=
EXTT6=
EXTT7=
EXTT8=
EXTT9=
EXTT10=
EXTT11=
EXTT12=
EXTT13=
EXTT14=
EXTT15=
EXTT16=
EXTT17=
EXTT18=
EXTT19=
PLAYORDER=
